<svg width="256" height="256" viewBox="0 0 256 256" fill="none" xmlns="http://www.w3.org/2000/svg">
<g clip-path="url(#clip0_2961_6327)">
<path opacity="0.2" d="M223.5 186C229.219 175.323 232.153 163.374 232.028 151.262C231.903 139.15 228.724 127.264 222.786 116.707C216.847 106.149 208.341 97.2604 198.055 90.8634C187.769 84.4664 176.035 80.7679 163.94 80.1104C167.759 90.9686 168.92 102.584 167.324 113.983C165.728 125.383 161.422 136.233 154.768 145.625C148.113 155.017 139.304 162.676 129.079 167.962C118.854 173.247 107.51 176.003 96.0001 176C94.6801 176 93.3701 176 92.0601 175.89C95.5094 185.689 101.037 194.625 108.263 202.088C115.49 209.55 124.244 215.362 133.927 219.124C143.609 222.886 153.991 224.51 164.36 223.885C174.729 223.259 184.84 220.399 194 215.5L221.76 223.66C223.138 224.065 224.6 224.091 225.993 223.736C227.385 223.381 228.655 222.657 229.671 221.641C230.687 220.625 231.41 219.355 231.766 217.963C232.121 216.571 232.095 215.109 231.69 213.73L223.5 186Z" fill="#EC609C"/>
<path d="M163.94 80.1104C176.035 80.7679 187.769 84.4664 198.055 90.8634C208.341 97.2604 216.847 106.149 222.786 116.707C228.724 127.264 231.903 139.15 232.028 151.262C232.153 163.374 229.219 175.323 223.5 186L231.66 213.76C232.065 215.139 232.091 216.601 231.736 217.993C231.38 219.385 230.657 220.655 229.641 221.671C228.625 222.687 227.355 223.411 225.963 223.766C224.57 224.121 223.108 224.095 221.73 223.69L194 215.5C184.84 220.399 174.729 223.259 164.36 223.885C153.991 224.51 143.609 222.886 133.927 219.124C124.244 215.362 115.49 209.55 108.263 202.088C101.037 194.625 95.5094 185.689 92.0601 175.89" stroke="#EC609C" stroke-width="16" stroke-linecap="round" stroke-linejoin="round"/>
<path d="M32.4999 138C24.3505 122.775 21.9445 105.128 25.7206 88.2775C29.4967 71.4268 39.2034 56.4944 53.0707 46.2034C66.938 35.9123 84.0421 30.9481 101.264 32.2159C118.486 33.4837 134.679 40.8991 146.89 53.1099C159.101 65.3207 166.516 81.5135 167.784 98.7356C169.052 115.958 164.087 133.062 153.796 146.929C143.505 160.796 128.573 170.503 111.722 174.279C94.8714 178.055 77.2247 175.649 62 167.5L34.24 175.66C32.8615 176.065 31.3995 176.091 30.0075 175.735C28.6155 175.38 27.3448 174.657 26.329 173.641C25.3131 172.625 24.5895 171.354 24.2343 169.962C23.879 168.57 23.9052 167.108 24.3099 165.73L32.4999 138Z" fill="#6650FA" fill-opacity="0.2" stroke="#6650FA" stroke-width="16" stroke-linecap="round" stroke-linejoin="round"/>
</g>
<defs>
<clipPath id="clip0_2961_6327">
<rect width="256" height="256" fill="white"/>
</clipPath>
</defs>
</svg>
